<svg width="24" height="24" viewBox="0 0 24 24" fill="none" xmlns="http://www.w3.org/2000/svg">
<g clip-path="url(#clip0_31_484)">
<path d="M11.6586 0.00610842C6.89037 0.173416 2.92911 3.89355 2.47147 8.64214C2.37798 9.59186 2.43211 10.5121 2.59941 11.3929C2.59941 11.3929 2.61418 11.4962 2.66338 11.693C2.81101 12.3524 3.03245 12.9921 3.30801 13.5925C4.26757 15.8659 6.48686 19.6697 11.4667 23.8081C11.7718 24.064 12.2196 24.064 12.5296 23.8081C17.5095 19.6746 19.7288 15.8708 20.6933 13.5876C20.9737 12.9872 21.1903 12.3524 21.3379 11.6881C21.3822 11.4962 21.4019 11.388 21.4019 11.388C21.515 10.7975 21.5741 10.1922 21.5741 9.57218C21.5741 4.16912 17.1011 -0.185803 11.6586 0.00610842ZM11.9982 14.3355C9.42951 14.3355 7.348 12.254 7.348 9.68536C7.348 7.11669 9.42951 5.03518 11.9982 5.03518C14.5668 5.03518 16.6483 7.11669 16.6483 9.68536C16.6483 12.254 14.5668 14.3355 11.9982 14.3355Z" fill="#FF0000"/>
</g>
<defs>
<clipPath id="clip0_31_484">
<rect width="24" height="24" fill="white"/>
</clipPath>
</defs>
</svg>
